<svg height="96" width="96" xmlns="http://www.w3.org/2000/svg" version="1.1">
<path transform="translate(69.53515625,13.578125)" fill="#0065CB" d="M0 0 C9.38388158 6.95566515 16.21271875 15.78589584 18.46484375 27.421875 C19.43478757 39.19346592 17.96619298 50.22664285 10.21875 59.546875 C3.98171268 66.21453183 -1.71917292 70.72683346 -10.53515625 73.421875 C-11.15777344 73.61265625 -11.78039063 73.8034375 -12.421875 74 C-22.90272695 76.09229577 -33.59246644 74.44696789 -42.8125 69.1015625 C-52.34358523 62.40602086 -59.30740955 52.93189963 -61.53515625 41.421875 C-62.47607687 30.00252019 -61.17008523 19.91964518 -54.22265625 10.546875 C-40.61657577 -5.4619814 -18.84846862 -11.73309911 0 0 Z M-45.58203125 10.27734375 C-52.39778194 17.57369224 -55.9196738 26.17283932 -55.75 36.18359375 C-54.91674062 44.8646415 -51.43307904 53.20185183 -44.66015625 58.796875 C-38.11538673 62.20015515 -32.66697067 63.11292378 -25.53515625 61.421875 C-20.2086316 59.52088917 -16.72986158 57.21393299 -13.53515625 52.421875 C-13.86515625 51.761875 -14.19515625 51.101875 -14.53515625 50.421875 C-15.52515625 50.751875 -16.51515625 51.081875 -17.53515625 51.421875 C-23.81772225 51.95429585 -28.35483631 51.17789412 -33.53515625 47.421875 C-37.32728443 42.65740626 -38.91420021 38.74919379 -38.8125 32.61328125 C-38.1193708 27.13658432 -35.73789265 23.379155 -31.47265625 19.984375 C-26.82136093 17.51028175 -22.75081073 16.76178326 -17.53515625 17.421875 C-11.69982675 19.26849826 -8.45231506 21.93761643 -5.53515625 27.421875 C-2.85084998 35.47479381 -3.46209321 45.32320151 -6.97265625 52.984375 C-9.71802417 57.79530545 -12.92180067 60.92265437 -17.484375 64.01953125 C-19.41354174 65.33871384 -20.94377451 66.71934914 -22.53515625 68.421875 C-13.22253115 68.38066869 -5.2162334 65.48541592 1.86328125 59.33984375 C8.99279873 51.77301386 12.87252565 43.12305194 12.67578125 32.65625 C11.76412614 22.99945881 7.22920005 14.66080345 0.15234375 8.109375 C-14.03527533 -3.04246533 -32.40655039 -1.66607878 -45.58203125 10.27734375 Z M-29.53515625 25.484375 C-31.86573513 28.90741273 -32.96749824 31.30635444 -33.53515625 35.421875 C-32.43716576 39.08184331 -31.38297079 41.54482548 -28.72265625 44.296875 C-25.8476868 45.77543072 -23.78336087 46.29449443 -20.53515625 46.421875 C-16.04276341 44.97517222 -12.74693405 43.72255406 -10.53515625 39.421875 C-9.31955883 35.51459757 -9.45527381 33.669931 -10.72265625 29.734375 C-12.51714188 26.45479781 -13.4214573 25.30006707 -16.53515625 23.421875 C-21.47513744 22.45797623 -25.35964627 22.61371189 -29.53515625 25.484375 Z"></path>
</svg>
