<svg height="250" width="300" xmlns="http://www.w3.org/2000/svg" version="1.1">
<path transform="translate(0,0)" fill="#FBFCFB" d="M0 0 C99 0 198 0 300 0 C300 82.5 300 165 300 250 C201 250 102 250 0 250 C0 167.5 0 85 0 0 Z"></path>
<path transform="translate(145.21044921875,9.60888671875)" fill="#096D39" d="M0 0 C2.55148002 0.01618897 5.10139733 -0.00000605 7.65283203 -0.01904297 C16.79324927 -0.03133651 25.01988356 0.53900858 33.78955078 3.39111328 C34.90378418 3.71958252 34.90378418 3.71958252 36.04052734 4.0546875 C52.12767245 8.89898296 65.67552529 17.01876271 78.78955078 27.39111328 C79.98837891 28.26703125 79.98837891 28.26703125 81.21142578 29.16064453 C93.707847 38.36059602 105.7944072 53.35166514 109.44970703 68.75830078 C110.24463948 74.91674298 109.92489408 81.19539787 109.78955078 87.39111328 C110.40830078 87.51486328 111.02705078 87.63861328 111.66455078 87.76611328 C115.50838394 88.89665245 117.04214428 92.0283509 118.89501953 95.40673828 C123.72579347 105.38219926 123.11928246 116.6527819 123.24951172 127.53637695 C123.276068 129.2225391 123.31693846 130.90854037 123.37255859 132.59399414 C123.87268711 148.0090998 120.70830349 159.0638273 109.97705078 170.70361328 C109.46352051 171.27990479 108.94999023 171.85619629 108.42089844 172.44995117 C101.64975524 179.92916726 94.32418681 186.29747072 85.91845703 191.88330078 C83.80262969 193.28050817 83.80262969 193.28050817 82.32861328 194.91845703 C80.29198259 196.86721279 78.14100856 197.85641154 75.60205078 199.07861328 C74.53728516 199.59681641 73.47251953 200.11501953 72.37548828 200.64892578 C71.19212891 201.22384766 70.00876953 201.79876953 68.78955078 202.39111328 C66.78562099 203.39458489 64.7853679 204.40515597 62.78515625 205.41601562 C57.3739739 208.14407316 51.94834633 210.84823445 46.47705078 213.45361328 C45.63529297 213.85708984 44.79353516 214.26056641 43.92626953 214.67626953 C41.78955078 215.39111328 41.78955078 215.39111328 38.78955078 214.39111328 C39.42570312 213.71628906 39.42570312 213.71628906 40.07470703 213.02783203 C51.08448151 200.95337607 57.88725829 186.89812152 62.02783203 171.19189453 C62.78955078 168.39111328 62.78955078 168.39111328 63.78955078 166.39111328 C62.88205078 166.72111328 61.97455078 167.05111328 61.03955078 167.39111328 C48.84893647 170.77603234 37.61822172 167.10160405 26.79345703 161.40673828 C24.43458253 160.21120734 22.04178577 159.16156209 19.60205078 158.14111328 C18.80412109 157.80595703 18.00619141 157.47080078 17.18408203 157.12548828 C14.59913013 156.33271347 12.47757217 156.25742838 9.78955078 156.39111328 C9.02268966 165.11628873 10.28434316 173.11488733 12.03955078 181.64111328 C12.24410889 182.65818359 12.44866699 183.67525391 12.65942383 184.72314453 C14.62795522 193.85653478 18.07058921 201.6329414 22.91455078 209.57861328 C23.29780518 210.21226807 23.68105957 210.84592285 24.07592773 211.4987793 C30.03875442 221.21138761 36.89863643 230.32412072 43.78955078 239.39111328 C40.2480328 240.15165619 37.33013939 240.21218812 33.78955078 239.39111328 C29.48175705 236.29912953 26.15527356 232.4455165 22.78955078 228.39111328 C22.30244629 227.8082959 21.8153418 227.22547852 21.31347656 226.625 C7.3740801 209.76879968 7.3740801 209.76879968 4.46533203 198.88330078 C3.97240041 197.06543733 3.41044714 195.26588535 2.80908203 193.48095703 C-4.70502755 170.70831077 -3.78996726 143.03310266 6.78955078 121.39111328 C12.26096156 112.22486534 19.18717743 105.20253703 28.78955078 100.39111328 C29.77955078 100.39111328 30.76955078 100.39111328 31.78955078 100.39111328 C31.78955078 99.73111328 31.78955078 99.07111328 31.78955078 98.39111328 C45.57228208 93.8110712 57.40810468 93.25148759 71.78955078 93.39111328 C71.78955078 94.05111328 71.78955078 94.71111328 71.78955078 95.39111328 C70.48630859 95.55546875 70.48630859 95.55546875 69.15673828 95.72314453 C60.57154835 96.82785025 60.57154835 96.82785025 52.78955078 100.39111328 C52.04833984 100.86033203 51.30712891 101.32955078 50.54345703 101.81298828 C44.09705959 105.43141387 44.09705959 105.43141387 40.35595703 111.30126953 C40.34021014 119.97780855 43.50428745 127.57141866 48.78955078 134.39111328 C49.77955078 135.05111328 50.76955078 135.71111328 51.78955078 136.39111328 C51.78955078 137.05111328 51.78955078 137.71111328 51.78955078 138.39111328 C57.76450862 138.87137987 57.76450862 138.87137987 63.35205078 137.07861328 C66.51088664 131.17296363 65.23002768 124.24477589 63.47705078 118.01611328 C62.30454825 114.49860568 60.83066316 111.50137977 58.78955078 108.39111328 C58.78955078 107.73111328 58.78955078 107.07111328 58.78955078 106.39111328 C59.44955078 106.39111328 60.10955078 106.39111328 60.78955078 106.39111328 C62.86446514 108.99721594 64.49851699 111.92203292 66.22705078 114.76611328 C66.71753906 115.54083984 67.20802734 116.31556641 67.71337891 117.11376953 C73.54010473 126.62839605 75.21477794 135.26262487 75.41455078 146.32861328 C75.46552491 148.35865784 75.52004741 150.38861731 75.57861328 152.41845703 C75.59617676 153.30267334 75.61374023 154.18688965 75.63183594 155.09790039 C75.70456433 157.55347222 75.70456433 157.55347222 76.78955078 160.39111328 C86.07548943 158.46988459 90.84894942 155.04401599 96.11767578 147.10595703 C102.3606703 136.96838416 105.1785929 127.93104695 105.03955078 116.01611328 C105.0342334 115.18974365 105.02891602 114.36337402 105.0234375 113.51196289 C104.88855015 103.08947168 104.88855015 103.08947168 101.71923828 93.29345703 C100.78955078 91.39111328 100.78955078 91.39111328 100.78955078 88.39111328 C101.47017578 87.85486328 102.15080078 87.31861328 102.85205078 86.76611328 C105.02534599 84.102074 105.12640638 83.50666983 104.97705078 80.20361328 C103.98767045 74.37299327 101.09988417 70.34225222 96.78955078 66.39111328 C90.08896971 61.81380551 83.6329705 60.83442242 75.63720703 60.82470703 C72.0763055 61.53297963 70.87144155 62.43185426 68.78955078 65.39111328 C68.26948039 68.22958486 68.26948039 68.22958486 68.47705078 71.26611328 C68.51185547 72.32056641 68.54666016 73.37501953 68.58251953 74.46142578 C68.79647059 77.48903507 69.13061792 80.42591541 69.78955078 83.39111328 C66.78955078 82.39111328 66.78955078 82.39111328 65.15673828 80.38720703 C63.04847777 75.76710472 63.04890966 71.09528227 62.79345703 66.07275391 C62.33499118 60.24438484 60.93181406 57.54003615 56.78955078 53.39111328 C56.45955078 53.72111328 56.12955078 54.05111328 55.78955078 54.39111328 C56.27101562 55.88771484 56.27101562 55.88771484 56.76220703 57.41455078 C58.21789369 62.5024125 58.18266868 67.60447628 58.34814453 72.86767578 C58.80665081 76.52761087 59.81820142 78.34897527 61.78955078 81.39111328 C61.45955078 82.05111328 61.12955078 82.71111328 60.78955078 83.39111328 C55.01337992 76.38182729 50.7553551 70.04070418 48.28955078 61.26611328 C47.09040489 57.03345238 45.49307128 53.91388242 42.78955078 50.39111328 C42.10892578 49.46298828 41.42830078 48.53486328 40.72705078 47.57861328 C38.90213576 45.15058441 38.90213576 45.15058441 35.78955078 44.39111328 C36.09892578 45.25736328 36.40830078 46.12361328 36.72705078 47.01611328 C37.80723205 50.72173514 38.02411406 54.29377134 38.22705078 58.14111328 C38.60426247 64.57428715 39.87862383 70.26368448 41.78955078 76.39111328 C42.13242945 77.72202391 42.46927625 79.05458303 42.78955078 80.39111328 C38.63799778 79.00726228 38.08761963 76.89401987 36.10546875 73.14550781 C33.22124368 67.10843411 30.96153211 60.80669474 28.62744141 54.54150391 C26.37536279 48.70028583 24.06025043 43.81035875 20.02172852 38.99682617 C18.78955078 37.39111328 18.78955078 37.39111328 17.78955078 34.39111328 C15.39886344 33.28474933 15.39886344 33.28474933 12.78955078 32.39111328 C11.79955078 31.73111328 10.80955078 31.07111328 9.78955078 30.39111328 C-5.39265725 28.75151999 -15.95479848 34.31770336 -28.21044922 42.39111328 C-29.20044922 43.38111328 -29.20044922 43.38111328 -30.21044922 44.39111328 C-30.04537276 46.96651541 -30.04537276 46.96651541 -29.21044922 49.39111328 C-25.75936747 51.11665416 -21.60279969 50.38447781 -17.79638672 50.26416016 C-13.94535363 50.19972358 -11.5758933 50.61943677 -8.21044922 52.39111328 C-4.97367964 52.04273299 -2.83124388 50.5890552 -0.14794922 48.82861328 C5.11947785 45.86568556 9.85395748 45.1410546 15.78955078 46.39111328 C20.42943429 48.76838473 23.94495494 52.02772143 26.78955078 56.39111328 C27.47705078 60.14111328 27.47705078 60.14111328 27.78955078 63.39111328 C27.12955078 63.39111328 26.46955078 63.39111328 25.78955078 63.39111328 C25.20173828 61.75142578 25.20173828 61.75142578 24.60205078 60.07861328 C23.06780892 56.46218604 21.40935678 55.06179297 17.78955078 53.39111328 C17.12955078 53.06111328 16.46955078 52.73111328 15.78955078 52.39111328 C11.18436082 51.96727279 7.03729122 51.94192672 2.66455078 53.51611328 C0.4965175 55.30172647 0.4965175 55.30172647 0.41455078 58.32861328 C0.71476968 60.78040091 1.06463721 63.03514417 1.78955078 65.39111328 C2.44955078 65.39111328 3.10955078 65.39111328 3.78955078 65.39111328 C3.91330078 64.60736328 4.03705078 63.82361328 4.16455078 63.01611328 C4.78955078 60.39111328 4.78955078 60.39111328 6.78955078 58.39111328 C10.21679061 58.01858721 12.15422927 58.02329556 15.16455078 59.76611328 C15.70080078 60.30236328 16.23705078 60.83861328 16.78955078 61.39111328 C16.78955078 62.05111328 16.78955078 62.71111328 16.78955078 63.39111328 C14.80955078 64.38111328 14.80955078 64.38111328 12.78955078 65.39111328 C12.46849256 68.92275375 12.30741366 70.74826379 14.47705078 73.64111328 C16.84793173 75.43529346 18.97857991 76.45412299 21.78955078 77.39111328 C21.78955078 77.72111328 21.78955078 78.05111328 21.78955078 78.39111328 C9.23910019 79.42422964 9.23910019 79.42422964 4.60205078 75.95361328 C3.30041807 74.79995566 2.03175826 73.60852619 0.78955078 72.39111328 C-12.73995368 59.77664777 -23.37797713 56.96368257 -41.77294922 57.01611328 C-42.48599213 57.0166571 -43.19903503 57.01720093 -43.9336853 57.01776123 C-63.46189489 57.08641713 -78.91889161 60.72093273 -93.55810547 74.52001953 C-97.34672495 78.62110247 -100.38780907 83.03379168 -103.43310547 87.70361328 C-105.21044922 90.39111328 -105.21044922 90.39111328 -107.21044922 92.39111328 C-109.27573286 68.3994017 -109.27573286 68.3994017 -105.06591797 62.56689453 C-102.47428447 60.19036314 -100.04993919 58.29697011 -97.05029297 56.50341797 C-95.10898816 55.3297735 -93.29479692 54.04541052 -91.46044922 52.71142578 C-82.68428876 46.42922236 -73.24265211 40.12659347 -62.21044922 39.39111328 C-62.21044922 38.73111328 -62.21044922 38.07111328 -62.21044922 37.39111328 C-72.80441373 37.82572999 -72.80441373 37.82572999 -82.96826172 40.55908203 C-87.27974762 42.15898882 -91.76685992 43.21999909 -96.21044922 44.39111328 C-89.92467299 28.49179694 -73.90900286 19.96553117 -59.20654297 12.60595703 C-56.21044922 11.39111328 -56.21044922 11.39111328 -52.21044922 11.39111328 C-52.21044922 10.73111328 -52.21044922 10.07111328 -52.21044922 9.39111328 C-49.38090806 8.44075652 -46.54751849 7.50603237 -43.71044922 6.57861328 C-42.93830078 6.31757813 -42.16615234 6.05654297 -41.37060547 5.78759766 C-27.61780241 1.33168946 -14.36281661 -0.10824152 0 0 Z"></path>
<path transform="translate(254,97)" fill="#06A653" d="M0 0 C3.2764681 0.17710638 4.68761008 0.69707644 7.0625 3 C14.57241574 14.62825664 14.29927306 26.71616324 14.45996094 40.14526367 C14.48651722 41.83142582 14.52738767 43.51742709 14.58300781 45.20288086 C15.08313633 60.61798652 11.91875271 71.67271402 1.1875 83.3125 C0.67396973 83.8887915 0.16043945 84.46508301 -0.36865234 85.05883789 C-7.13979554 92.53805398 -14.46536397 98.90635744 -22.87109375 104.4921875 C-24.98692109 105.88939489 -24.98692109 105.88939489 -26.4609375 107.52734375 C-28.49756819 109.47609951 -30.64854222 110.46529826 -33.1875 111.6875 C-34.25226563 112.20570313 -35.31703125 112.72390625 -36.4140625 113.2578125 C-37.59742188 113.83273438 -38.78078125 114.40765625 -40 115 C-42.00392979 116.00347161 -44.00418288 117.01404269 -46.00439453 118.02490234 C-51.41557689 120.75295988 -56.84120445 123.45712117 -62.3125 126.0625 C-63.15425781 126.46597656 -63.99601562 126.86945313 -64.86328125 127.28515625 C-67 128 -67 128 -70 127 C-69.57589844 126.55011719 -69.15179688 126.10023438 -68.71484375 125.63671875 C-57.70506927 113.56226278 -50.90229249 99.50700824 -46.76171875 83.80078125 C-46 81 -46 81 -45 79 C-46.36125 79.495 -46.36125 79.495 -47.75 80 C-59.94061431 83.38491906 -71.17132906 79.71049076 -81.99609375 74.015625 C-84.35496825 72.82009406 -86.74776501 71.7704488 -89.1875 70.75 C-89.98542969 70.41484375 -90.78335938 70.0796875 -91.60546875 69.734375 C-94.19042065 68.94160019 -96.31197861 68.8663151 -99 69 C-99.76686112 77.72517545 -98.50520762 85.72377405 -96.75 94.25 C-96.54544189 95.26707031 -96.34088379 96.28414063 -96.13012695 97.33203125 C-94.16159556 106.46542149 -90.71896157 114.24182811 -85.875 122.1875 C-85.30011841 123.13798218 -85.30011841 123.13798218 -84.71362305 124.10766602 C-78.75079636 133.82027433 -71.89091435 142.93300744 -65 152 C-68.54151798 152.76054291 -71.45941139 152.82107484 -75 152 C-79.30779373 148.90801625 -82.63427722 145.05440322 -86 141 C-86.73065674 140.12577393 -86.73065674 140.12577393 -87.47607422 139.23388672 C-101.41547068 122.3776864 -101.41547068 122.3776864 -104.32421875 111.4921875 C-104.81715038 109.67432405 -105.37910364 107.87477207 -105.98046875 106.08984375 C-113.49457833 83.31719748 -112.57951804 55.64198938 -102 34 C-96.52858922 24.83375206 -89.60237335 17.81142375 -80 13 C-79.01 13 -78.02 13 -77 13 C-77 12.34 -77 11.68 -77 11 C-63.21726871 6.41995792 -51.3814461 5.86037431 -37 6 C-37 6.66 -37 7.32 -37 8 C-37.86882812 8.10957031 -38.73765625 8.21914062 -39.6328125 8.33203125 C-48.21800243 9.43673697 -48.21800243 9.43673697 -56 13 C-56.74121094 13.46921875 -57.48242188 13.9384375 -58.24609375 14.421875 C-64.69249119 18.04030059 -64.69249119 18.04030059 -68.43359375 23.91015625 C-68.44934064 32.58669527 -65.28526333 40.18030538 -60 47 C-59.01 47.66 -58.02 48.32 -57 49 C-57 49.66 -57 50.32 -57 51 C-51.02504216 51.48026659 -51.02504216 51.48026659 -45.4375 49.6875 C-42.27866414 43.78185035 -43.5595231 36.85366261 -45.3125 30.625 C-46.48500253 27.1074924 -47.95888762 24.11026648 -50 21 C-50 20.34 -50 19.68 -50 19 C-49.34 19 -48.68 19 -48 19 C-45.92508564 21.60610266 -44.29103379 24.53091963 -42.5625 27.375 C-42.07201172 28.14972656 -41.58152344 28.92445312 -41.07617188 29.72265625 C-35.24944605 39.23728277 -33.57477284 47.87151159 -33.375 58.9375 C-33.32402587 60.96754456 -33.26950337 62.99750403 -33.2109375 65.02734375 C-33.19337402 65.91156006 -33.17581055 66.79577637 -33.15771484 67.70678711 C-33.08498645 70.16235893 -33.08498645 70.16235893 -32 73 C-22.71406135 71.07877131 -17.94060136 67.65290271 -12.671875 59.71484375 C-6.42888048 49.57727088 -3.61095788 40.53993367 -3.75 28.625 C-3.75531738 27.79863037 -3.76063477 26.97226074 -3.76611328 26.12084961 C-3.86421524 15.66925305 -3.86421524 15.66925305 -7.1328125 5.90234375 C-8 4 -8 4 -7 1 C-5.5459375 1.0309375 -5.5459375 1.0309375 -4.0625 1.0625 C-1.12534105 1.35618499 -1.12534105 1.35618499 0 0 Z"></path>
<path transform="translate(163,108)" fill="#809A3D" d="M0 0 C-1 3 -1 3 -2.9375 4.1640625 C-7.28849147 5.35170558 -11.50949519 5.29655454 -16 5.375 C-32.65667344 5.94324777 -45.48946604 10.73267415 -57.2355957 22.77099609 C-72.83507352 39.48932914 -75.63370686 64.19578996 -75 86 C-73.63488281 85.01773438 -73.63488281 85.01773438 -72.2421875 84.015625 C-68.48149189 81.67765038 -66.34381643 81.65249469 -62 82 C-62.03480469 81.443125 -62.06960937 80.88625 -62.10546875 80.3125 C-62.28126616 75.35668723 -61.78985266 71.68335275 -59.81762695 67.14013672 C-59.00820078 65.02146552 -58.55587352 63.04630855 -58.140625 60.8203125 C-57.07726908 55.85798487 -55.2449081 51.46944767 -53.125 46.875 C-52.61646484 45.73611328 -52.61646484 45.73611328 -52.09765625 44.57421875 C-49.9750074 39.88502111 -47.62036707 35.42994791 -45 31 C-43.70608076 35.2902977 -44.588343 38.83886285 -45.42578125 43.14453125 C-47.55986662 55.3042242 -47.33141569 67.38225587 -47.1875 79.6875 C-47.17240763 81.96157956 -47.15872738 84.23566894 -47.14648438 86.50976562 C-47.113882 92.00672981 -47.06405285 97.50331684 -47 103 C-46.40703125 102.18144531 -45.8140625 101.36289063 -45.203125 100.51953125 C-43 98 -43 98 -39.75 97.6875 C-38.8425 97.790625 -37.935 97.89375 -37 98 C-37.99 98.495 -37.99 98.495 -39 99 C-38.67 99.99 -38.34 100.98 -38 102 C-38.4375 104.6875 -38.4375 104.6875 -39 107 C-33.91696314 107.11320856 -33.91696314 107.11320856 -29 106 C-29 104.02 -29 102.04 -29 100 C-31.31 100 -33.62 100 -36 100 C-36 99.01 -36 98.02 -36 97 C-32.535 96.505 -32.535 96.505 -29 96 C-29 94.02 -29 92.04 -29 90 C-34.23471686 89.24387423 -38.77254141 88.7936634 -44 90 C-44.33 88.68 -44.66 87.36 -45 86 C-40.1488568 82.01513237 -36.26475596 81.560368 -30 82 C-26.82229651 83.51663121 -24.17914791 85.22460818 -22 88 C-21.65942383 90.63549805 -21.65942383 90.63549805 -21.70703125 93.76171875 C-21.71669922 94.87998047 -21.72636719 95.99824219 -21.73632812 97.15039062 C-21.76146484 98.31763672 -21.78660156 99.48488281 -21.8125 100.6875 C-21.83280273 102.45577148 -21.83280273 102.45577148 -21.85351562 104.25976562 C-21.88890674 107.17363411 -21.93828191 110.08658945 -22 113 C-23.65 113 -25.3 113 -27 113 C-27.33 112.34 -27.66 111.68 -28 111 C-28.804375 111.33 -29.60875 111.66 -30.4375 112 C-34.61803528 113.17348359 -38.68739953 113.76394637 -43 113 C-44.76953125 111.48046875 -44.76953125 111.48046875 -46 110 C-46.11320856 115.08303686 -46.11320856 115.08303686 -45 120 C-44.9314505 121.89470816 -44.91519628 123.7916834 -44.9375 125.6875 C-44.94652344 126.68136719 -44.95554687 127.67523438 -44.96484375 128.69921875 C-44.97644531 129.45847656 -44.98804687 130.21773437 -45 131 C-45.33 131 -45.66 131 -46 131 C-46 129.35 -46 127.7 -46 126 C-47.98 126 -49.96 126 -52 126 C-52 127.65 -52 129.3 -52 131 C-52.33 131 -52.66 131 -53 131 C-53 127.04 -53 123.08 -53 119 C-57.07748212 116.34077253 -60.23519166 114.81471295 -65.0625 114.0625 C-70.14934174 113.17346231 -72.47302061 111.78505105 -76 108 C-77.6156451 105.23032268 -78.79422404 102.57323305 -79.875 99.5625 C-80.89067852 97.24901003 -81.92722641 95.68015948 -83.4375 93.6875 C-86.17711996 90.00765544 -87.55335142 86.33994574 -89 82 C-92.7952131 83.49097658 -94.61042731 85.75700849 -97 89 C-95.43016948 92.42947591 -93.41360779 95.33591594 -91.1875 98.375 C-90.47980469 99.34179688 -89.77210937 100.30859375 -89.04296875 101.3046875 C-87.42192968 103.44334325 -85.76754948 105.48428455 -84 107.5 C-82 110 -82 110 -82 113 C-85.21996191 113.73790794 -87.79920038 113.89463344 -91 113 C-94.27612648 109.72387352 -96.59311197 105.94094854 -99 102 C-100.57841251 99.51840867 -102.14922503 97.30096348 -104 95 C-105.65 94.67 -107.3 94.34 -109 94 C-109 100.27 -109 106.54 -109 113 C-111.64 113 -114.28 113 -117 113 C-117 99.14 -117 85.28 -117 71 C-114.36 71 -111.72 71 -109 71 C-109 76.61 -109 82.22 -109 88 C-103.99043072 85.99617229 -102.95241545 85.19201571 -99.875 81.125 C-99.21242188 80.26132813 -98.54984375 79.39765625 -97.8671875 78.5078125 C-97.25101563 77.68023437 -96.63484375 76.85265625 -96 76 C-95.4328125 75.43796875 -94.865625 74.8759375 -94.28125 74.296875 C-92.15526872 70.48566466 -92.64239314 66.41127465 -92.625 62.125 C-92.37036191 52.76584897 -91.02459284 45.54965318 -87 37 C-86.48179688 35.88109375 -85.96359375 34.7621875 -85.4296875 33.609375 C-77.9564012 18.66280241 -64.83700373 5.15584576 -49.140625 -1.1484375 C-34.21763936 -5.19471968 -15.26055053 -1.17113318 0 0 Z"></path>
<path transform="translate(139.53125,90.0078125)" fill="#4F813D" d="M0 0 C7.53451949 3.02811384 14.42125341 4.56452422 22.53125 5.1796875 C23.49224609 5.26154297 24.45324219 5.34339844 25.44335938 5.42773438 C27.78452773 5.62574364 30.12602632 5.81370342 32.46875 5.9921875 C32.13875 6.9821875 31.80875 7.9721875 31.46875 8.9921875 C27.54021129 9.067373 23.61196167 9.12126766 19.68286133 9.15698242 C17.70313764 9.1791622 15.72361336 9.21731747 13.74414062 9.25585938 C4.82343313 9.32361158 -3.90633493 9.07546421 -11.53125 3.9921875 C-25.36826239 2.19885029 -38.41023305 6.86741148 -49.53125 14.9921875 C-52.13288128 17.16223033 -54.63007667 19.40136064 -57.09765625 21.72265625 C-58.62535828 23.14736713 -60.1918426 24.53267235 -61.80859375 25.85546875 C-73.53165204 35.47702977 -83.26606893 50.85517632 -88.53125 64.9921875 C-89.19125 64.9921875 -89.85125 64.9921875 -90.53125 64.9921875 C-91.55451941 62.66657521 -92.55079388 60.33571675 -93.53125 57.9921875 C-93.923125 57.0846875 -94.315 56.1771875 -94.71875 55.2421875 C-97.82378847 42.82203363 -93.64910669 30.38163157 -87.328125 19.6171875 C-67.99487058 -8.62617548 -29.08953821 -12.64276084 0 0 Z"></path>
<path transform="translate(118,139)" fill="#CACA3F" d="M0 0 C1.29391924 4.2902977 0.411657 7.83886285 -0.42578125 12.14453125 C-2.55986662 24.3042242 -2.33141569 36.38225587 -2.1875 48.6875 C-2.17240763 50.96157956 -2.15872738 53.23566894 -2.14648438 55.50976562 C-2.113882 61.00672981 -2.06405285 66.50331684 -2 72 C-1.11054687 70.77216797 -1.11054687 70.77216797 -0.203125 69.51953125 C2 67 2 67 5.25 66.6875 C6.1575 66.790625 7.065 66.89375 8 67 C7.01 67.495 7.01 67.495 6 68 C6.33 68.99 6.66 69.98 7 71 C6.5625 73.6875 6.5625 73.6875 6 76 C11.08303686 76.11320856 11.08303686 76.11320856 16 75 C16 73.02 16 71.04 16 69 C13.69 69 11.38 69 9 69 C9 68.01 9 67.02 9 66 C11.31 65.67 13.62 65.34 16 65 C16 63.02 16 61.04 16 59 C10.76528314 58.24387423 6.22745859 57.7936634 1 59 C0.67 57.68 0.34 56.36 0 55 C4.8511432 51.01513237 8.73524404 50.560368 15 51 C18.17770349 52.51663121 20.82085209 54.22460818 23 57 C23.34057617 59.63549805 23.34057617 59.63549805 23.29296875 62.76171875 C23.2784668 64.43911133 23.2784668 64.43911133 23.26367188 66.15039062 C23.23853516 67.31763672 23.21339844 68.48488281 23.1875 69.6875 C23.16719727 71.45577148 23.16719727 71.45577148 23.14648438 73.25976562 C23.11109326 76.17363411 23.06171809 79.08658945 23 82 C21.35 82 19.7 82 18 82 C17.67 81.34 17.34 80.68 17 80 C15.7934375 80.495 15.7934375 80.495 14.5625 81 C10.38196472 82.17348359 6.31260047 82.76394637 2 82 C0.23046875 80.48046875 0.23046875 80.48046875 -1 79 C-1.11320856 84.08303686 -1.11320856 84.08303686 0 89 C0.0685495 90.89470816 0.08480372 92.7916834 0.0625 94.6875 C0.05347656 95.68136719 0.04445313 96.67523438 0.03515625 97.69921875 C0.02355469 98.45847656 0.01195313 99.21773438 0 100 C-0.33 100 -0.66 100 -1 100 C-1 98.35 -1 96.7 -1 95 C-2.98 95 -4.96 95 -7 95 C-7 96.65 -7 98.3 -7 100 C-7.33 100 -7.66 100 -8 100 C-8 96.04 -8 92.08 -8 88 C-13.18082051 84.65405342 -16.84777564 83.43173504 -23 83 C-23 82.67 -23 82.34 -23 82 C-22.16855469 81.87882812 -21.33710937 81.75765625 -20.48046875 81.6328125 C-19.39378906 81.46523437 -18.30710937 81.29765625 -17.1875 81.125 C-16.10855469 80.96257812 -15.02960938 80.80015625 -13.91796875 80.6328125 C-10.82678207 80.14867662 -10.82678207 80.14867662 -8 78 C-8 76.68 -8 75.36 -8 74 C-9.010625 74.495 -10.02125 74.99 -11.0625 75.5 C-14.84138002 77.09875693 -17.87290724 77.54508772 -22 77 C-24.4375 75.3125 -24.4375 75.3125 -26 73 C-26 71.35 -26 69.7 -26 68 C-19.73 67.67 -13.46 67.34 -7 67 C-6.78455115 60.10893449 -6.78455115 60.10893449 -10 55 C-13.28491373 52.81005752 -14.83095639 52.64722661 -18.6875 52.375 C-19.68136719 52.30023438 -20.67523438 52.22546875 -21.69921875 52.1484375 C-22.45847656 52.09945312 -23.21773438 52.05046875 -24 52 C-24 51.67 -24 51.34 -24 51 C-21.69 51 -19.38 51 -17 51 C-17.03480469 50.443125 -17.06960937 49.88625 -17.10546875 49.3125 C-17.28126616 44.35668723 -16.78985266 40.68335275 -14.81762695 36.14013672 C-14.00820078 34.02146552 -13.55587352 32.04630855 -13.140625 29.8203125 C-12.07726908 24.85798487 -10.2449081 20.46944767 -8.125 15.875 C-7.78597656 15.11574219 -7.44695312 14.35648438 -7.09765625 13.57421875 C-4.9750074 8.88502111 -2.62036707 4.42994791 0 0 Z"></path>
<path transform="translate(46,179)" fill="#2A2A2A" d="M0 0 C2.64 0 5.28 0 8 0 C8 5.61 8 11.22 8 17 C12.99709051 15.0011638 14.0067163 14.23960284 17.0625 10.1875 C17.71347656 9.33542969 18.36445312 8.48335937 19.03515625 7.60546875 C20.375351 5.8283119 21.67893541 4.02309494 22.94921875 2.1953125 C25 0 25 0 27.359375 -0.48828125 C28.54273438 -0.40126953 28.54273438 -0.40126953 29.75 -0.3125 C30.54921875 -0.26738281 31.3484375 -0.22226563 32.171875 -0.17578125 C32.77515625 -0.11777344 33.3784375 -0.05976563 34 0 C32.52266997 3.35826052 30.60015399 5.74285122 28.125 8.4375 C25.30239908 11.54749301 22.57280648 14.67679163 20 18 C21.56983052 21.42947591 23.58639221 24.33591594 25.8125 27.375 C26.52019531 28.34179688 27.22789063 29.30859375 27.95703125 30.3046875 C29.57807032 32.44334325 31.23245052 34.48428455 33 36.5 C35 39 35 39 35 42 C31.78003809 42.73790794 29.20079962 42.89463344 26 42 C22.72387352 38.72387352 20.40688803 34.94094854 18 31 C16.42158749 28.51840867 14.85077497 26.30096348 13 24 C11.35 23.67 9.7 23.34 8 23 C8 29.27 8 35.54 8 42 C5.36 42 2.72 42 0 42 C0 28.14 0 14.28 0 0 Z"></path>
<path transform="translate(98.3125,190.6875)" fill="#292925" d="M0 0 C1.13050781 -0.03738281 2.26101562 -0.07476562 3.42578125 -0.11328125 C7.32998001 0.39636865 8.89170228 1.60754047 11.6875 4.3125 C14.19985511 7.78194277 13.92397784 11.13472488 13.6875 15.3125 C12.6875 16.3125 12.6875 16.3125 10.82983398 16.42602539 C10.03907471 16.42078857 9.24831543 16.41555176 8.43359375 16.41015625 C7.57958984 16.40693359 6.72558594 16.40371094 5.84570312 16.40039062 C4.49895508 16.38782227 4.49895508 16.38782227 3.125 16.375 C2.22330078 16.37048828 1.32160156 16.36597656 0.39257812 16.36132812 C-1.84251314 16.34950225 -4.07747437 16.3330222 -6.3125 16.3125 C-5.04275028 20.72772109 -5.04275028 20.72772109 -2.3125 24.3125 C2.02393601 24.62787716 4.01403229 24.76147847 7.6875 22.3125 C9.0075 22.3125 10.3275 22.3125 11.6875 22.3125 C12.0175 23.6325 12.3475 24.9525 12.6875 26.3125 C7.71820634 30.25366394 3.64173539 30.70910539 -2.578125 30.66796875 C-6.86972047 30.11006134 -8.43790939 28.48192042 -11.3125 25.3125 C-14.81545727 20.05806409 -13.97643403 13.41937839 -13.3125 7.3125 C-10.49951724 1.19504678 -6.29442249 0.13544057 0 0 Z"></path>
<path transform="translate(135.75,191.3125)" fill="#292823" d="M0 0 C3.81764532 2.86323399 3.81764532 2.86323399 5.25 4.6875 C5.59057617 7.32299805 5.59057617 7.32299805 5.54296875 10.44921875 C5.53330078 11.56748047 5.52363281 12.68574219 5.51367188 13.83789062 C5.48853516 15.00513672 5.46339844 16.17238281 5.4375 17.375 C5.41719727 19.14327148 5.41719727 19.14327148 5.39648438 20.94726562 C5.36109326 23.86113411 5.31171809 26.77408945 5.25 29.6875 C3.6 29.6875 1.95 29.6875 0.25 29.6875 C-0.08 29.0275 -0.41 28.3675 -0.75 27.6875 C-1.554375 28.0175 -2.35875 28.3475 -3.1875 28.6875 C-7.48283214 29.89320727 -11.32707105 30.4916689 -15.75 29.6875 C-18.375 27.625 -18.375 27.625 -19.75 24.6875 C-19.68931504 21.16777215 -19.41225706 18.76802467 -17.5625 15.75 C-14.94357381 14.21476741 -12.72085195 14.4894432 -9.75 14.6875 C-10.41 15.0175 -11.07 15.3475 -11.75 15.6875 C-11.42 16.6775 -11.09 17.6675 -10.75 18.6875 C-11.1875 21.375 -11.1875 21.375 -11.75 23.6875 C-6.66696314 23.80070856 -6.66696314 23.80070856 -1.75 22.6875 C-1.75 20.7075 -1.75 18.7275 -1.75 16.6875 C-4.06 16.6875 -6.37 16.6875 -8.75 16.6875 C-8.75 15.6975 -8.75 14.7075 -8.75 13.6875 C-5.285 13.1925 -5.285 13.1925 -1.75 12.6875 C-1.75 10.7075 -1.75 8.7275 -1.75 6.6875 C-6.98471686 5.93137423 -11.52254141 5.4811634 -16.75 6.6875 C-17.08 5.3675 -17.41 4.0475 -17.75 2.6875 C-12.52621207 -1.60346866 -6.37111785 -3.04076079 0 0 Z"></path>
<path transform="translate(141,198)" fill="#E5DB38" d="M0 0 C0.33 0 0.66 0 1 0 C1.00257813 0.93457031 1.00515625 1.86914062 1.0078125 2.83203125 C1.4200929 16.83582234 5.22316667 29.43633729 11.23706055 42.05688477 C12 44 12 44 12 47 C0.40997391 45.05305886 0.40997391 45.05305886 -4 42 C-4.875 39.3125 -4.875 39.3125 -5 37 C-6.32 37 -7.64 37 -9 37 C-9.33 38.32 -9.66 39.64 -10 41 C-10 37.37 -10 33.74 -10 30 C-9.34 30 -8.68 30 -8 30 C-9.26974972 25.58477891 -9.26974972 25.58477891 -12 22 C-10.02 21.34 -8.04 20.68 -6 20 C-5.67 20.99 -5.34 21.98 -5 23 C-3.35 23 -1.7 23 0 23 C0 15.41 0 7.82 0 0 Z"></path>
<path transform="translate(113,199)" fill="#C1C031" d="M0 0 C0.33 0 0.66 0 1 0 C1.03738281 0.83660156 1.07476562 1.67320312 1.11328125 2.53515625 C1.48467523 9.11101433 2.16009155 15.24435929 3.5625 21.6875 C4.90156802 27.90181568 5.35581407 33.66123824 5 40 C4.67 40 4.34 40 4 40 C4 38.35 4 36.7 4 35 C2.02 35 0.04 35 -2 35 C-2 36.65 -2 38.3 -2 40 C-2.33 40 -2.66 40 -3 40 C-3 36.04 -3 32.08 -3 28 C-8.18082051 24.65405342 -11.84777564 23.43173504 -18 23 C-18 22.67 -18 22.34 -18 22 C-17.16855469 21.87882812 -16.33710937 21.75765625 -15.48046875 21.6328125 C-14.39378906 21.46523437 -13.30710937 21.29765625 -12.1875 21.125 C-11.10855469 20.96257812 -10.02960938 20.80015625 -8.91796875 20.6328125 C-5.82678207 20.14867662 -5.82678207 20.14867662 -3 18 C-3 16.68 -3 15.36 -3 14 C-4.010625 14.495 -5.02125 14.99 -6.0625 15.5 C-9.84138002 17.09875693 -12.87290724 17.54508772 -17 17 C-19.4375 15.3125 -19.4375 15.3125 -21 13 C-21 11.35 -21 9.7 -21 8 C-14.73 7.67 -8.46 7.34 -2 7 C-1.34 4.69 -0.68 2.38 0 0 Z"></path>
<path transform="translate(116,217)" fill="#EDEEEA" d="M0 0 C0.81597656 0.72703125 0.81597656 0.72703125 1.6484375 1.46875 C5.16131926 3.75620789 8.44075214 3.46190087 12.5390625 3.59375 C13.35117188 3.7278125 14.16328125 3.861875 15 4 C17 7 17 7 17 11 C16.34 11 15.68 11 15 11 C15 14.63 15 18.26 15 22 C14.67 22 14.34 22 14 22 C13.67 19.36 13.34 16.72 13 14 C11.02 14 9.04 14 7 14 C6.67 15.98 6.34 17.96 6 20 C9.465 19.505 9.465 19.505 13 19 C12.67 19.99 12.34 20.98 12 22 C9.125 22.125 9.125 22.125 6 22 C5.34 21.34 4.68 20.68 4 20 C3.34 20.66 2.68 21.32 2 22 C1.93941406 21.24074219 1.87882812 20.48148438 1.81640625 19.69921875 C1.73261719 18.70535156 1.64882812 17.71148437 1.5625 16.6875 C1.48128906 15.70136719 1.40007812 14.71523437 1.31640625 13.69921875 C1.08187441 10.90624401 1.08187441 10.90624401 0 8 C-0.12781786 5.32605036 -0.04391871 2.67904143 0 0 Z"></path>
<path transform="translate(131,147)" fill="#EDE33E" d="M0 0 C0.33 0 0.66 0 1 0 C1.04487549 0.81041748 1.08975098 1.62083496 1.13598633 2.45581055 C1.31163766 5.52981828 1.49747006 8.603013 1.68969727 11.67602539 C1.80918357 13.63317778 1.91744793 15.59100515 2.02539062 17.54882812 C2.50508928 25.08969101 3.51019019 32.10101815 5.4831543 39.40161133 C6 42 6 42 5 45 C2.36 44.34 -0.28 43.68 -3 43 C-3.44766747 14.43537181 -3.44766747 14.43537181 -1 1 C-0.67 0.67 -0.34 0.34 0 0 Z"></path>
<path transform="translate(116,217)" fill="#CBCB52" d="M0 0 C1.60881575 7.42640842 2.26442904 14.40501039 2 22 C1.67 22 1.34 22 1 22 C1 20.35 1 18.7 1 17 C-0.98 17 -2.96 17 -5 17 C-5 18.65 -5 20.3 -5 22 C-5.33 22 -5.66 22 -6 22 C-6 18.04 -6 14.08 -6 10 C-11.18082051 6.65405342 -14.84777564 5.43173504 -21 5 C-21 4.67 -21 4.34 -21 4 C-20.20335938 3.87882813 -19.40671875 3.75765625 -18.5859375 3.6328125 C-12.48868126 2.66852623 -6.04425638 0 0 0 Z"></path>
<path transform="translate(199,62)" fill="#F5F8F6" d="M0 0 C3.18480976 0.23591183 4.25970777 1.23758875 6.66015625 3.43359375 C9.87630536 7.56441616 10.07702254 11.98236919 10.4375 17.0625 C10.52708984 17.94744141 10.61667969 18.83238281 10.70898438 19.74414062 C11.10536327 24.33868906 11.29918268 27.82676653 9 32 C8.34 31.01 7.68 30.02 7 29 C6.4740625 28.26265625 5.948125 27.5253125 5.40625 26.765625 C3.63942747 23.29087402 3.59591161 20.63442034 3.5 16.75 C3.21526826 10.56465724 2.30943573 5.72338421 0 0 Z"></path>
<path transform="translate(129,196)" fill="#63613C" d="M0 0 C2.475 0.99 2.475 0.99 5 2 C5 3.98 5 5.96 5 8 C3.02 8.99 3.02 8.99 1 10 C2.32 10.66 3.64 11.32 5 12 C5.1875 14.875 5.1875 14.875 5 18 C1.3558226 20.4294516 -0.71241272 20.16179575 -5 20 C-6.12676056 15.49295775 -6.12676056 15.49295775 -5.4375 12.8125 C-5.293125 12.214375 -5.14875 11.61625 -5 11 C-5.66 10.34 -6.32 9.68 -7 9 C-3.535 8.505 -3.535 8.505 0 8 C0 5.36 0 2.72 0 0 Z"></path>
<path transform="translate(70,228)" fill="#929292" d="M0 0 C0.66 0 1.32 0 2 0 C2 3.63 2 7.26 2 11 C0.02 11 -1.96 11 -4 11 C-4 10.34 -4 9.68 -4 9 C-4.99 9.66 -5.98 10.32 -7 11 C-9.6875 11.125 -9.6875 11.125 -12 11 C-12.625 7.625 -12.625 7.625 -13 4 C-12.34 3.34 -11.68 2.68 -11 2 C-8.5 2.375 -8.5 2.375 -6 3 C-3.84365964 3 -2.07553648 2.5534764 0 2 C0 1.34 0 0.68 0 0 Z"></path>
<path transform="translate(126,206)" fill="#2F2F2F" d="M0 0 C-0.99 0.495 -0.99 0.495 -2 1 C-1.67 1.99 -1.34 2.98 -1 4 C-1.4375 6.6875 -1.4375 6.6875 -2 9 C0.97 9.495 0.97 9.495 4 10 C2.68 10.99 1.36 11.98 0 13 C0.99 13.66 1.98 14.32 3 15 C-5.01869159 15.77102804 -5.01869159 15.77102804 -8.625 12.9375 C-10.4158923 9.11150281 -10.12046692 7.03368093 -9 3 C-6.72791219 -0.70709064 -4.07905359 -0.27193691 0 0 Z"></path>
<path transform="translate(99,228)" fill="#666666" d="M0 0 C3.375 -0.125 3.375 -0.125 7 0 C9 2 9 2 9.25 5.5 C9 9 9 9 7 11 C3.375 11.125 3.375 11.125 0 11 C0 7.37 0 3.74 0 0 Z"></path>
<path transform="translate(155.125,55.5)" fill="#358357" d="M0 0 C6.13619885 0.09663305 9.65617049 2.16176965 13.875 6.5 C16.9162163 10.07289747 17.42505997 12.8206237 17.875 17.5 C17.215 17.5 16.555 17.5 15.875 17.5 C15.483125 16.406875 15.09125 15.31375 14.6875 14.1875 C13.07804564 10.50874718 11.68222213 9.07254827 7.875 7.5 C4.89508929 6.70869598 1.90616058 6.06132603 -1.125 5.5 C0.195 4.51 1.515 3.52 2.875 2.5 C-0.425 2.5 -3.725 2.5 -7.125 2.5 C-4.59807886 -0.02692114 -3.51306853 0.11742847 0 0 Z"></path>
<path transform="translate(99,195.25)" fill="#EEEFEE" d="M0 0 C3 0.75 3 0.75 6 2.75 C6 4.07 6 5.39 6 6.75 C1.71 6.75 -2.58 6.75 -7 6.75 C-6.67 5.1 -6.34 3.45 -6 1.75 C-3 -0.25 -3 -0.25 0 0 Z"></path>
<path transform="translate(199,62)" fill="#D4E4DB" d="M0 0 C3.73248669 0.7018351 5.62024355 2.0834858 8.02734375 5.1015625 C9.80722743 8.57555234 9.37937594 12.20624058 9 16 C8.34 14.68 7.68 13.36 7 12 C5.26043342 13.73956658 5.62809614 16.1936622 5.4375 18.5625 C5.35371094 19.57441406 5.26992187 20.58632812 5.18359375 21.62890625 C5.12300781 22.41136719 5.06242188 23.19382812 5 24 C4.67 24 4.34 24 4 24 C3.96261719 23.02160156 3.92523438 22.04320313 3.88671875 21.03515625 C3.51143618 13.55158033 2.83002442 7.01353877 0 0 Z"></path>
<path transform="translate(204,116)" fill="#01A048" d="M0 0 C0.66 0 1.32 0 2 0 C3.6442478 2.22003132 5.14753884 4.42299868 6.625 6.75 C7.04523438 7.38421875 7.46546875 8.0184375 7.8984375 8.671875 C10.12043182 12.13472328 11 13.78907329 11 18 C10.34 18 9.68 18 9 18 C9 20.97 9 23.94 9 27 C8.67 27 8.34 27 8 27 C7.96261719 26.43152344 7.92523438 25.86304688 7.88671875 25.27734375 C7.43354902 19.95482079 6.34273678 15.86568408 4 11 C0.74957411 3.74787053 0.74957411 3.74787053 0 0 Z"></path>
<path transform="translate(92,230)" fill="#868686" d="M0 0 C1 1 1 1 1.09765625 2.84765625 C1.04882812 5.92382812 1.04882812 5.92382812 1 9 C0.67 9 0.34 9 0 9 C-0.12375 8.030625 -0.2475 7.06125 -0.375 6.0625 C-0.58125 5.051875 -0.7875 4.04125 -1 3 C-1.66 2.67 -2.32 2.34 -3 2 C-3 4.31 -3 6.62 -3 9 C-3.99 9 -4.98 9 -6 9 C-6 7.02 -6 5.04 -6 3 C-6.66 3 -7.32 3 -8 3 C-8 4.98 -8 6.96 -8 9 C-8.66 9 -9.32 9 -10 9 C-10 6.36 -10 3.72 -10 1 C-6.74696956 -0.62651522 -3.60774398 -0.11453156 0 0 Z"></path>
<path transform="translate(54,228)" fill="#868686" d="M0 0 C0.66 0 1.32 0 2 0 C2 3.63 2 7.26 2 11 C1.34 11 0.68 11 0 11 C-0.33 10.34 -0.66 9.68 -1 9 C-1.33 9.66 -1.66 10.32 -2 11 C-2.66 11 -3.32 11 -4 11 C-4.66 9.35 -5.32 7.7 -6 6 C-6.33 7.65 -6.66 9.3 -7 11 C-7.33 11 -7.66 11 -8 11 C-8 7.7 -8 4.4 -8 1 C-7.01 1.33 -6.02 1.66 -5 2 C-4.3125 4.0625 -4.3125 4.0625 -4 6 C-3.34 6 -2.68 6 -2 6 C-1.855625 5.195625 -1.71125 4.39125 -1.5625 3.5625 C-1 1 -1 1 0 0 Z"></path>
<path transform="translate(254,81)" fill="#12743F" d="M0 0 C0.33 0 0.66 0 1 0 C1.05382106 2.62527189 1.09358313 5.24944713 1.125 7.875 C1.14175781 8.62136719 1.15851563 9.36773437 1.17578125 10.13671875 C1.1933959 12.09194461 1.10320189 14.04742021 1 16 C-1 18 -1 18 -4.125 18.125 C-5.548125 18.063125 -5.548125 18.063125 -7 18 C-6.55011719 17.31550781 -6.10023438 16.63101563 -5.63671875 15.92578125 C-3.85042444 12.7326203 -2.83994669 9.69499044 -1.8125 6.1875 C-1.46832031 5.02605469 -1.12414062 3.86460938 -0.76953125 2.66796875 C-0.51558594 1.78753906 -0.26164063 0.90710938 0 0 Z"></path>
<path transform="translate(92,207)" fill="#EDEEE6" d="M0 0 C2.64 0 5.28 0 8 0 C8 2.64 8 5.28 8 8 C3.55063291 8.36075949 3.55063291 8.36075949 1.1875 6.8125 C-0.36678206 4.44017475 -0.22537188 2.77958655 0 0 Z"></path>
<path transform="translate(217,103)" fill="#3EB772" d="M0 0 C0 0.66 0 1.32 0 2 C-3.71888866 2.8632601 -7.14296488 3.11721556 -10.95703125 3.09765625 C-12.06884766 3.09443359 -13.18066406 3.09121094 -14.32617188 3.08789062 C-15.47666016 3.07951172 -16.62714844 3.07113281 -17.8125 3.0625 C-19.56723633 3.05573242 -19.56723633 3.05573242 -21.35742188 3.04882812 C-24.23833358 3.0370693 -27.11914044 3.02063426 -30 3 C-22.14901268 -2.23399154 -9.16559662 -0.08898637 0 0 Z"></path>
<path transform="translate(59,230)" fill="#9C9C9C" d="M0 0 C2.625 0.375 2.625 0.375 5 1 C5.04241723 3.33294775 5.04092937 5.66702567 5 8 C4 9 4 9 1.4375 9.0625 C0.633125 9.041875 -0.17125 9.02125 -1 9 C-1.625 5.625 -1.625 5.625 -2 2 C-1.34 1.34 -0.68 0.68 0 0 Z"></path>
<path transform="translate(131,228)" fill="#868457" d="M0 0 C2.875 -0.125 2.875 -0.125 6 0 C6.66 0.66 7.32 1.32 8 2 C7.46428571 5.53571429 7.46428571 5.53571429 6 7 C4.33382885 7.04063832 2.66611905 7.042721 1 7 C0.67 8.32 0.34 9.64 0 11 C0 7.37 0 3.74 0 0 Z"></path>
<path transform="translate(126.5625,229.9375)" fill="#F5F5F5" d="M0 0 C1.134375 0.020625 2.26875 0.04125 3.4375 0.0625 C3.4375 2.7025 3.4375 5.3425 3.4375 8.0625 C3.1075 7.4025 2.7775 6.7425 2.4375 6.0625 C0.1275 6.3925 -2.1825 6.7225 -4.5625 7.0625 C-4.60504356 5.06295254 -4.60330783 3.06208364 -4.5625 1.0625 C-3.5625 0.0625 -3.5625 0.0625 0 0 Z"></path>
<path transform="translate(131,147)" fill="#EFE968" d="M0 0 C0.33 0 0.66 0 1 0 C1.33 7.92 1.66 15.84 2 24 C1.67 24 1.34 24 1 24 C1 22.02 1 20.04 1 18 C0.01 18 -0.98 18 -2 18 C-1.85980308 15.18711295 -1.71312045 12.37483115 -1.5625 9.5625 C-1.52318359 8.76005859 -1.48386719 7.95761719 -1.44335938 7.13085938 C-1.11328125 1.11328125 -1.11328125 1.11328125 0 0 Z"></path>
<path transform="translate(160,96)" fill="#8FAF84" d="M0 0 C3.96 0 7.92 0 12 0 C11.67 0.99 11.34 1.98 11 3 C6.92492428 3.04946866 2.84996503 3.08575189 -1.2253418 3.10986328 C-2.61144048 3.1199157 -3.99751799 3.1335597 -5.38354492 3.15087891 C-7.3766975 3.17515952 -9.37000533 3.18542031 -11.36328125 3.1953125 C-13.16212769 3.21102295 -13.16212769 3.21102295 -14.99731445 3.22705078 C-18 3 -18 3 -21 1 C-14.07 1 -7.14 1 0 1 C0 0.67 0 0.34 0 0 Z"></path>
<path transform="translate(127.625,208.875)" fill="#E8E8E4" d="M0 0 C0.78375 0.04125 1.5675 0.0825 2.375 0.125 C2.705 2.435 3.035 4.745 3.375 7.125 C1.065 7.125 -1.245 7.125 -3.625 7.125 C-4.25 4.75 -4.25 4.75 -4.625 2.125 C-2.625 0.125 -2.625 0.125 0 0 Z"></path>
<path transform="translate(122,228)" fill="#737373" d="M0 0 C3.625 0.375 3.625 0.375 7 1 C7 1.66 7 2.32 7 3 C5.02 3 3.04 3 1 3 C0.67 4.98 0.34 6.96 0 9 C3.465 8.505 3.465 8.505 7 8 C6.67 8.99 6.34 9.98 6 11 C3.125 11.125 3.125 11.125 0 11 C-2 9 -2 9 -2.25 5.5 C-2 2 -2 2 0 0 Z"></path>
<path transform="translate(242,87)" fill="#2E7C52" d="M0 0 C0 0.99 0 1.98 0 3 C-4.64203897 5.53309233 -8.65155992 7.46515599 -14 8 C-6.43243243 0 -6.43243243 0 0 0 Z"></path>
<path transform="translate(105,224)" fill="#EBEBE8" d="M0 0 C1.98 0.99 3.96 1.98 6 3 C5.67 6.96 5.34 10.92 5 15 C3.09681116 12.14521674 2.5380901 10.58058692 1.875 7.3125 C1.70742187 6.50425781 1.53984375 5.69601563 1.3671875 4.86328125 C1.24601562 4.24839844 1.12484375 3.63351563 1 3 C0.34 3 -0.32 3 -1 3 C-0.67 2.01 -0.34 1.02 0 0 Z"></path>
<path transform="translate(129,165)" fill="#EBE021" d="M0 0 C0.99 0 1.98 0 3 0 C3.125 5.75 3.125 5.75 2 8 C1.7677354 10.71262116 1.58063765 13.40773126 1.4375 16.125 C1.39431641 16.87910156 1.35113281 17.63320312 1.30664062 18.41015625 C1.2005168 20.27321888 1.09974999 22.13658524 1 24 C0.67 24 0.34 24 0 24 C0 16.08 0 8.16 0 0 Z"></path>
<path transform="translate(183,75)" fill="#328255" d="M0 0 C0.33 0 0.66 0 1 0 C1.47970123 1.74985354 1.95873924 3.49988891 2.4375 5.25 C2.83775391 6.71179688 2.83775391 6.71179688 3.24609375 8.203125 C3.85544584 10.46372653 4.44238255 12.72622009 5 15 C2 14 2 14 -0.3125 11.4375 C-2.09094227 7.81474724 -2.1795979 7.28488545 -1.25 3.625 C-0.8375 2.42875 -0.425 1.2325 0 0 Z"></path>
<path transform="translate(116,228)" fill="#616159" d="M0 0 C0.66 0 1.32 0 2 0 C2 3.63 2 7.26 2 11 C1.67 11 1.34 11 1 11 C1 9.35 1 7.7 1 6 C-0.98 6 -2.96 6 -5 6 C-5 7.65 -5 9.3 -5 11 C-5.33 11 -5.66 11 -6 11 C-6 7.7 -6 4.4 -6 1 C-5.67 1.99 -5.34 2.98 -5 4 C-3.35 4 -1.7 4 0 4 C0 2.68 0 1.36 0 0 Z"></path>
<path transform="translate(75,231)" fill="#707070" d="M0 0 C0.66 0.33 1.32 0.66 2 1 C1.67 1.66 1.34 2.32 1 3 C1.99 3 2.98 3 4 3 C3.67 2.01 3.34 1.02 3 0 C3.99 0.33 4.98 0.66 6 1 C6 1.99 6 2.98 6 4 C4.35 4 2.7 4 1 4 C1 4.99 1 5.98 1 7 C2.32 6.67 3.64 6.34 5 6 C5 6.66 5 7.32 5 8 C2.625 8.125 2.625 8.125 0 8 C-0.66 7.34 -1.32 6.68 -2 6 C-1.44444444 1.44444444 -1.44444444 1.44444444 0 0 Z"></path>
<path transform="translate(96,195)" fill="#BFBF52" d="M0 0 C3.73487777 0.4979837 5.81237635 0.87491756 9 3 C9 4.32 9 5.64 9 7 C7.02 7 5.04 7 3 7 C3 5.02 3 3.04 3 1 C2.01 0.67 1.02 0.34 0 0 Z"></path>
<path transform="translate(101,230)" fill="#F8F8F8" d="M0 0 C2.475 0.495 2.475 0.495 5 1 C5 2.98 5 4.96 5 7 C3.35 7 1.7 7 0 7 C0 4.69 0 2.38 0 0 Z"></path>
<path transform="translate(150,95)" fill="#568643" d="M0 0 C1.47906892 -0.02689216 2.95827483 -0.04634621 4.4375 -0.0625 C5.26121094 -0.07410156 6.08492187 -0.08570312 6.93359375 -0.09765625 C9 0 9 0 10 1 C12.32817964 1.36760731 14.6618385 1.70241581 17 2 C17 2.33 17 2.66 17 3 C12.05 3 7.1 3 2 3 C2 2.34 2 1.68 2 1 C1.34 0.67 0.68 0.34 0 0 Z"></path>
<path transform="translate(204,116)" fill="#4FBC7E" d="M0 0 C0.66 0 1.32 0 2 0 C3.5078125 1.8984375 3.5078125 1.8984375 5.125 4.375 C5.66382813 5.18710938 6.20265625 5.99921875 6.7578125 6.8359375 C8 9 8 9 8 11 C7.01 11.33 6.02 11.66 5 12 C4.16180842 10.37750059 3.3295884 8.75191503 2.5 7.125 C2.0359375 6.22007813 1.571875 5.31515625 1.09375 4.3828125 C0 2 0 2 0 0 Z"></path>
<path transform="translate(199,103)" fill="#8DD3AA" d="M0 0 C5.94 0 11.88 0 18 0 C18 0.66 18 1.32 18 2 C13.545 2.495 13.545 2.495 9 3 C9 2.67 9 2.34 9 2 C6.03 1.67 3.06 1.34 0 1 C0 0.67 0 0.34 0 0 Z"></path>
<path transform="translate(46,229)" fill="#5E5E5E" d="M0 0 C0.99 0.33 1.98 0.66 3 1 C3.33 2.98 3.66 4.96 4 7 C4.66 7 5.32 7 6 7 C6 7.99 6 8.98 6 10 C5.34 10 4.68 10 4 10 C3.34 8.35 2.68 6.7 2 5 C1.67 6.65 1.34 8.3 1 10 C0.67 10 0.34 10 0 10 C0 6.7 0 3.4 0 0 Z"></path>
<path transform="translate(169,113)" fill="#36B36C" d="M0 0 C0.66 0.33 1.32 0.66 2 1 C0.26884328 2.91338375 -1.24340605 4.13995848 -3.5 5.4375 C-6.07248206 7.04530129 -7.24687951 8.57902409 -9 11 C-9.66 11 -10.32 11 -11 11 C-9.0648965 5.77522055 -4.47545126 2.98363417 0 0 Z"></path>
<path transform="translate(212,78)" fill="#468D64" d="M0 0 C0.33 0 0.66 0 1 0 C1.66 4.95 2.32 9.9 3 15 C2.01 14.67 1.02 14.34 0 14 C-1.1875 11.4375 -1.1875 11.4375 -2 9 C-1.67 9 -1.34 9 -1 9 C-0.67 6.03 -0.34 3.06 0 0 Z"></path>
<path transform="translate(129,196)" fill="#EAE02E" d="M0 0 C1.98 0.99 1.98 0.99 4 2 C4 3.65 4 5.3 4 7 C2.68 7 1.36 7 0 7 C0 4.69 0 2.38 0 0 Z"></path>
<path transform="translate(160,96)" fill="#B6CAAE" d="M0 0 C3.96 0 7.92 0 12 0 C11.67 0.99 11.34 1.98 11 3 C5.04296875 3.29296875 5.04296875 3.29296875 3 3 C2.01 2.01 1.02 1.02 0 0 Z"></path>
<path transform="translate(81,230)" fill="#D6D6D6" d="M0 0 C0.99 0.33 1.98 0.66 3 1 C2.34 1 1.68 1 1 1 C1 2.98 1 4.96 1 7 C-2 8 -2 8 -5 8 C-5 7.01 -5 6.02 -5 5 C-3.35 5 -1.7 5 0 5 C-0.2784375 4.0409375 -0.2784375 4.0409375 -0.5625 3.0625 C-0.706875 2.381875 -0.85125 1.70125 -1 1 C-0.67 0.67 -0.34 0.34 0 0 Z"></path>
<path transform="translate(210,176)" fill="#33B26B" d="M0 0 C1 2 1 2 0.546875 3.83984375 C0.28390625 4.53207031 0.0209375 5.22429687 -0.25 5.9375 C-0.62898437 6.97197266 -0.62898437 6.97197266 -1.015625 8.02734375 C-2.06854763 10.13736727 -3.25352136 11.4350374 -5 13 C-4.55005243 11.20620902 -4.08975857 9.41501072 -3.625 7.625 C-3.36976563 6.62726563 -3.11453125 5.62953125 -2.8515625 4.6015625 C-2 2 -2 2 0 0 Z"></path>
<path transform="translate(131,208)" fill="#D3CA30" d="M0 0 C0.99 0 1.98 0 3 0 C3 1.98 3 3.96 3 6 C2.01 6.33 1.02 6.66 0 7 C-0.38133299 5.0085944 -0.71325582 3.00720923 -1 1 C-0.67 0.67 -0.34 0.34 0 0 Z"></path>
<path transform="translate(99,228)" fill="#898989" d="M0 0 C3.375 -0.1875 3.375 -0.1875 7 0 C9 3 9 3 8.625 5.6875 C8.41875 6.450625 8.2125 7.21375 8 8 C7.67 8 7.34 8 7 8 C6.67 6.35 6.34 4.7 6 3 C4.02 2.34 2.04 1.68 0 1 C0 0.67 0 0.34 0 0 Z"></path>
<path transform="translate(153,242)" fill="#EEE656" d="M0 0 C0 0.99 0 1.98 0 3 C-3.3 2.34 -6.6 1.68 -10 1 C-8.68 0.67 -7.36 0.34 -6 0 C-3 -1 -3 -1 0 0 Z"></path>
<path transform="translate(95,221)" fill="#C9CA7C" d="M0 0 C3.63 0 7.26 0 11 0 C11.66 1.32 12.32 2.64 13 4 C12.34 3.690625 11.68 3.38125 11 3.0625 C7.29523985 1.75039745 3.90736009 1.39735865 0 1 C0 0.67 0 0.34 0 0 Z"></path>
<path transform="translate(134,182)" fill="#E8E159" d="M0 0 C3.00617269 3.00617269 2.59585316 5.82381598 3 10 C1.68 9.34 0.36 8.68 -1 8 C-0.67 5.36 -0.34 2.72 0 0 Z"></path>
<path transform="translate(163,108)" fill="#8CA44F" d="M0 0 C-0.33 0.99 -0.66 1.98 -1 3 C-1.99 3.33 -2.98 3.66 -4 4 C-4 3.34 -4 2.68 -4 2 C-6.97 2 -9.94 2 -13 2 C-13 1.67 -13 1.34 -13 1 C-11.20843648 0.83222817 -9.4167455 0.66581706 -7.625 0.5 C-6.62726563 0.4071875 -5.62953125 0.314375 -4.6015625 0.21875 C-2 0 -2 0 0 0 Z"></path>
<path transform="translate(54,228)" fill="#6A6A6A" d="M0 0 C0.66 0 1.32 0 2 0 C2 3.3 2 6.6 2 10 C1.67 10 1.34 10 1 10 C1 8.02 1 6.04 1 4 C0.34 4 -0.32 4 -1 4 C-0.67 2.68 -0.34 1.36 0 0 Z"></path>
<path transform="translate(127,205)" fill="#1A1B1C" d="M0 0 C2.31 0 4.62 0 7 0 C7 0.99 7 1.98 7 3 C4.69 3 2.38 3 0 3 C0 2.01 0 1.02 0 0 Z"></path>
<path transform="translate(210,127)" fill="#25AE61" d="M0 0 C0.99 0 1.98 0 3 0 C3.66 1.65 4.32 3.3 5 5 C4.01 4.67 3.02 4.34 2 4 C1.34 4.66 0.68 5.32 0 6 C0 4.02 0 2.04 0 0 Z"></path>
</svg>
